<svg width="25" height="24" viewBox="0 0 25 24" fill="none" xmlns="http://www.w3.org/2000/svg">
<g clip-path="url(#clip0_346_755)">
<path d="M12.6667 2C7.14669 2 2.66669 6.48 2.66669 12C2.66669 17.52 7.14669 22 12.6667 22C18.1867 22 22.6667 17.52 22.6667 12C22.6667 6.48 18.1867 2 12.6667 2ZM12.6667 6C14.5967 6 16.1667 7.57 16.1667 9.5C16.1667 11.43 14.5967 13 12.6667 13C10.7367 13 9.16669 11.43 9.16669 9.5C9.16669 7.57 10.7367 6 12.6667 6ZM12.6667 20C10.6367 20 8.23669 19.18 6.52669 17.12C8.21669 15.8 10.3467 15 12.6667 15C14.9867 15 17.1167 15.8 18.8067 17.12C17.0967 19.18 14.6967 20 12.6667 20Z" fill="#0F172A"/>
</g>
<defs>
<clipPath id="clip0_346_755">
<rect width="24" height="24" fill="white" transform="translate(0.666687)"/>
</clipPath>
</defs>
</svg>
