<svg width="20" height="20" viewBox="0 0 20 20" fill="none" xmlns="http://www.w3.org/2000/svg">
<path d="M3.42135 15.0896L2.62753 14.4814L2.62753 14.4814L3.42135 15.0896ZM4.3905 12.3649L3.3905 12.3525V12.3649H4.3905ZM4.41084 10.7175L5.41084 10.7298V10.7175H4.41084ZM16.5839 15.1028L17.3898 14.5107L17.3898 14.5107L16.5839 15.1028ZM15.6512 12.3649L14.6512 12.3519V12.3649H15.6512ZM15.6716 10.7991L16.6716 10.8121V10.7991H15.6716ZM13.6667 15.8663C13.6667 15.314 13.219 14.8663 12.6667 14.8663C12.1144 14.8663 11.6667 15.314 11.6667 15.8663H13.6667ZM8.33337 15.8663C8.33337 15.314 7.88566 14.8663 7.33337 14.8663C6.78109 14.8663 6.33337 15.314 6.33337 15.8663H8.33337ZM2.4069 5.24097C2.19904 5.75264 2.44534 6.33594 2.95701 6.5438C3.46869 6.75166 4.05199 6.50537 4.25985 5.99369L2.4069 5.24097ZM6.14964 3.86545C6.6373 3.60621 6.82247 3.00073 6.56323 2.51307C6.30399 2.02541 5.69851 1.84024 5.21085 2.09948L6.14964 3.86545ZM14.782 2.1116C14.2971 1.84723 13.6897 2.026 13.4253 2.5109C13.161 2.9958 13.3397 3.6032 13.8246 3.86757L14.782 2.1116ZM15.7362 5.9765C15.9386 6.49039 16.5192 6.74297 17.0331 6.54064C17.5469 6.33831 17.7995 5.75771 17.5972 5.24382L15.7362 5.9765ZM4.21517 15.6977C4.79769 14.9374 5.3905 13.7849 5.3905 12.3649H3.3905C3.3905 13.2187 3.03132 13.9544 2.62753 14.4814L4.21517 15.6977ZM5.39042 12.3772L5.41077 10.7298L3.41092 10.7051L3.39058 12.3525L5.39042 12.3772ZM17.3898 14.5107C17.0036 13.985 16.6512 13.2387 16.6512 12.3649H14.6512C14.6512 13.7804 15.218 14.9326 15.778 15.6949L17.3898 14.5107ZM16.6511 12.3779L16.6715 10.8121L14.6717 10.7861L14.6513 12.3519L16.6511 12.3779ZM16.6716 10.7991C16.6716 7.13302 13.6766 4.17552 10 4.17552V6.17552C12.5881 6.17552 14.6716 8.25356 14.6716 10.7991H16.6716ZM16.2445 16.8663C16.9359 16.8663 17.3676 16.3845 17.5398 15.9833C17.7107 15.5854 17.7507 15.002 17.3898 14.5107L15.778 15.6949C15.6214 15.4817 15.6652 15.2801 15.702 15.1943C15.7402 15.1054 15.9001 14.8663 16.2445 14.8663V16.8663ZM5.41084 10.7175C5.41084 8.21701 7.45748 6.17552 10 6.17552V4.17552C6.36895 4.17552 3.41084 7.09647 3.41084 10.7175H5.41084ZM3.7564 14.8663C4.10828 14.8663 4.26564 15.1136 4.3006 15.1976C4.33445 15.2789 4.37949 15.4832 4.21517 15.6977L2.62753 14.4814C2.25069 14.9733 2.28758 15.566 2.45425 15.9663C2.62203 16.3693 3.05318 16.8663 3.7564 16.8663V14.8663ZM16.2445 14.8663H3.7564V16.8663H16.2445V14.8663ZM11.6667 15.8663C11.6667 16.6047 10.9952 17.3334 10 17.3334V19.3334C11.9504 19.3334 13.6667 17.8529 13.6667 15.8663H11.6667ZM10 17.3334C9.00491 17.3334 8.33337 16.6047 8.33337 15.8663H6.33337C6.33337 17.8529 8.04965 19.3334 10 19.3334V17.3334ZM10.7778 3.42113C10.7778 3.82532 10.4421 4.17552 10 4.17552V6.17552C11.5216 6.17552 12.7778 4.95479 12.7778 3.42113H10.7778ZM10 4.17552C9.55796 4.17552 9.22226 3.82532 9.22226 3.42113H7.22226C7.22226 4.95479 8.47844 6.17552 10 6.17552V4.17552ZM9.22226 3.42113C9.22226 3.01694 9.55796 2.66675 10 2.66675V0.666748C8.47844 0.666748 7.22226 1.88748 7.22226 3.42113H9.22226ZM10 2.66675C10.4421 2.66675 10.7778 3.01694 10.7778 3.42113H12.7778C12.7778 1.88748 11.5216 0.666748 10 0.666748V2.66675ZM4.25985 5.99369C4.63308 5.07492 5.29639 4.31904 6.14964 3.86545L5.21085 2.09948C3.91993 2.78573 2.94631 3.91312 2.4069 5.24097L4.25985 5.99369ZM13.8246 3.86757C14.7125 4.35163 15.3894 5.09556 15.7362 5.9765L17.5972 5.24382C17.0646 3.89102 16.0471 2.80134 14.782 2.1116L13.8246 3.86757Z" fill="#0F172A"/>
</svg>
