<svg width="20" height="20" viewBox="0 0 20 20" fill="none" xmlns="http://www.w3.org/2000/svg">
<path d="M15.7667 5.00841C15.6 4.51675 15.1333 4.16675 14.5833 4.16675H5.41667C4.86667 4.16675 4.40833 4.51675 4.23333 5.00841L2.5 10.0001V16.6667C2.5 17.1251 2.875 17.5001 3.33333 17.5001H4.16667C4.625 17.5001 5 17.1251 5 16.6667V15.8334H15V16.6667C15 17.1251 15.375 17.5001 15.8333 17.5001H16.6667C17.125 17.5001 17.5 17.1251 17.5 16.6667V10.0001L15.7667 5.00841ZM5.70833 5.83341H14.2833L15.15 8.33342H4.84167L5.70833 5.83341ZM15.8333 14.1667H4.16667V10.0001H15.8333V14.1667Z" fill="#0F172A"/>
<path d="M6.25 13.3335C6.94036 13.3335 7.5 12.7739 7.5 12.0835C7.5 11.3931 6.94036 10.8335 6.25 10.8335C5.55964 10.8335 5 11.3931 5 12.0835C5 12.7739 5.55964 13.3335 6.25 13.3335Z" fill="#0F172A"/>
<path d="M13.75 13.3335C14.4404 13.3335 15 12.7739 15 12.0835C15 11.3931 14.4404 10.8335 13.75 10.8335C13.0596 10.8335 12.5 11.3931 12.5 12.0835C12.5 12.7739 13.0596 13.3335 13.75 13.3335Z" fill="#0F172A"/>
</svg>
