<svg width="20" height="20" viewBox="0 0 20 20" fill="none" xmlns="http://www.w3.org/2000/svg">
<path d="M7.49996 12.2916L12.5 7.29159M12.4954 12.2916H12.5029M7.49538 7.70825H7.50287M16.25 10.4166C16.25 9.26659 17.1833 8.33325 18.3333 8.33325V7.49992C18.3333 4.16659 17.5 3.33325 14.1666 3.33325H5.83329C2.49996 3.33325 1.66663 4.16659 1.66663 7.49992V7.91659C2.81663 7.91659 3.74996 8.84992 3.74996 9.99992C3.74996 11.1499 2.81663 12.0833 1.66663 12.0833V12.4999C1.66663 15.8333 2.49996 16.6666 5.83329 16.6666H14.1666C17.5 16.6666 18.3333 15.8333 18.3333 12.4999C17.1833 12.4999 16.25 11.5666 16.25 10.4166Z" stroke="#0F172A" stroke-width="1.5" stroke-linecap="round" stroke-linejoin="round"/>
</svg>
