<svg width="100" height="100" viewBox="0 0 100 100" fill="none" xmlns="http://www.w3.org/2000/svg">
<path d="M65.6021 59.1698H62.2144L61.0137 58.012C65.2161 53.1235 67.7461 46.777 67.7461 39.8731C67.7461 24.4786 55.2676 12 39.8731 12C24.4786 12 12 24.4786 12 39.8731C12 55.2676 24.4786 67.7461 39.8731 67.7461C46.777 67.7461 53.1235 65.2161 58.012 61.0137L59.1698 62.2144V65.6021L80.6106 87L87 80.6106L65.6021 59.1698ZM39.8731 59.1698C29.1955 59.1698 20.5763 50.5506 20.5763 39.8731C20.5763 29.1955 29.1955 20.5763 39.8731 20.5763C50.5506 20.5763 59.1698 29.1955 59.1698 39.8731C59.1698 50.5506 50.5506 59.1698 39.8731 59.1698Z" fill="#0F172A"/>
</svg>
