<svg width="32" height="32" viewBox="0 0 32 32" fill="none" xmlns="http://www.w3.org/2000/svg">
<path d="M9.92527 6.52136C9.03366 6.52136 8.27065 6.20182 7.63626 5.56272C7.00078 4.92472 6.68304 4.15737 6.68304 3.26068C6.68304 2.36399 7.00078 1.5961 7.63626 0.95701C8.27065 0.319003 9.03366 0 9.92527 0C10.8169 0 11.5804 0.319003 12.2159 0.95701C12.8503 1.5961 13.1675 2.36399 13.1675 3.26068C13.1675 4.15737 12.8503 4.92472 12.2159 5.56272C11.5804 6.20182 10.8169 6.52136 9.92527 6.52136ZM8.38521 29.3461C7.4936 29.3461 6.67656 29.0271 5.93409 28.3891C5.19054 27.75 4.7242 26.9821 4.53507 26.0855L1.3739 10.1081C1.26583 9.59184 1.3739 9.13643 1.69812 8.74189C2.02235 8.34843 2.45464 8.1517 2.99501 8.1517C3.37327 8.1517 3.711 8.27398 4.00821 8.51853C4.30541 8.76308 4.49454 9.07556 4.5756 9.45598L7.89888 26.0855H17.2203C17.6796 26.0855 18.0649 26.242 18.3761 26.555C18.6863 26.8669 18.8414 27.2539 18.8414 27.7158C18.8414 28.1777 18.6863 28.5647 18.3761 28.8766C18.0649 29.1896 17.6796 29.3461 17.2203 29.3461H8.38521ZM29.176 31.7916C28.7977 32.009 28.386 32.0563 27.9407 31.9335C27.4943 31.8118 27.1631 31.5607 26.9469 31.1803L23.0563 24.4551H11.7895C11.006 24.4551 10.3241 24.2171 9.7437 23.741C9.16226 23.2661 8.79049 22.6346 8.62838 21.8466L6.84515 13.1242C6.54795 11.82 6.85164 10.6651 7.75622 9.65977C8.66188 8.65439 9.76316 8.1517 11.06 8.1517C12.0057 8.1517 12.8638 8.43701 13.6344 9.00763C14.4039 9.57825 14.8967 10.3527 15.1128 11.3309L16.896 19.5641H22.1647C22.7321 19.5641 23.2589 19.7135 23.7452 20.0124C24.2316 20.3113 24.6233 20.7053 24.9206 21.1944L29.7839 29.5499C30 29.9303 30.0541 30.345 29.946 30.7939C29.8379 31.2417 29.5812 31.5743 29.176 31.7916Z" fill="#CBD5E1"/>
</svg>
